<svg xmlns="http://www.w3.org/2000/svg" width="32" height="32"><g color="#000"><path fill="#34485c" style="isolation:auto;mix-blend-mode:normal" d="m16 3-3.111 6h6.222L16 3Zm-3.629 7L9.26 16h13.48l-3.111-6H12.37zm-3.63 7-3.112 6H26.37l-3.111-6H8.74Zm-3.63 7L2 30h28l-3.111-6H5.11Z" overflow="visible" transform="translate(0 -1)"/><path fill="#25b39e" d="M12.371 10 9.26 16h13.48l-3.111-6Zm-3.63 7-3.112 6H26.37l-3.111-6Zm-3.63 7L2 30h28l-3.111-6Z" overflow="visible" transform="translate(0 -1)" style="isolation:auto;mix-blend-mode:normal"/><path fill="#f8b84e" style="isolation:auto;mix-blend-mode:normal" d="M8.74 17 5.63 23H26.37l-3.111-6Z" overflow="visible" transform="translate(0 -1)"/><path fill="#f05542" d="M5.111 24 2 30h28l-3.111-6Z" overflow="visible" transform="translate(0 -1)" style="isolation:auto;mix-blend-mode:normal"/></g></svg>